ffmpeg started on 2025-06-06 at 17:58:33
Report written to "D:\Convert\FFMetrics\reports\ssim_report-6.txt"
Log level: 32
Command line:
ffmpeg -hide_banner -nostdin -i "G:\\\xc0\xed\xe8\xec\xe5\\\xce\xed\xe3\xee\xe8\xed\xe3\xe8\\!_36_\xce\xf1\xe5\xed\xfc_2024\\DreamCast\\\xcf\xee\xe2\xe5\xeb\xe8\xf2\xe5\xeb\xfc \xe4\xe5\xec\xee\xed\xee\xe2 2099\\[DC] Maou 2099 - 09_Telegram_HEVC.mkv" -i "G:\\\xc0\xed\xe8\xec\xe5\\\xce\xed\xe3\xee\xe8\xed\xe3\xe8\\!_36_\xce\xf1\xe5\xed\xfc_2024\\DreamCast\\\xcf\xee\xe2\xe5\xeb\xe8\xf2\xe5\xeb\xfc \xe4\xe5\xec\xee\xed\xee\xe2 2099\\[DC] Maou 2099 - 09_Telegram.mp4" -lavfi "[0:v]settb=AVTB,setpts=PTS-STARTPTS,format=pix_fmts=yuv420p10,fps=24000/1001,scale=1920:1080:flags=bicubic[main];[1:v]settb=AVTB,setpts=PTS-STARTPTS,format=pix_fmts=yuv420p,fps=24000/1001,scale=1920:1080:flags=bicubic[ref];[main][ref]ssim=eof_action=endall:stats_file='D\\:/Convert/FFMetrics/logs/ssim_logfile-6.txt'" -f null -
Input #0, matroska,webm, from 'G:\Аниме\Онгоинги\!_36_Осень_2024\DreamCast\Повелитель демонов 2099\[DC] Maou 2099 - 09_Telegram_HEVC.mkv':
  Metadata:
    COMPATIBLE_BRANDS: isomiso2avc1mp41
    MAJOR_BRAND     : isom
    MINOR_VERSION   : 512
    ENCODER         : Lavf61.7.100
  Duration: 00:23:46.65, start: -0.021000, bitrate: 1317 kb/s
  Stream #0:0: Video: hevc (Main 10), yuv420p10le(tv, bt709, progressive), 1920x1080 [SAR 1:1 DAR 16:9], 23.98 fps, 23.98 tbr, 1k tbn (default)
      Metadata:
        HANDLER_NAME    : VideoHandler
        VENDOR_ID       : [0][0][0][0]
        ENCODER         : Lavc61.19.100 libx265
        BPS             : 1120158
        DURATION        : 00:23:46.549708333
        NUMBER_OF_FRAMES: 34203
        NUMBER_OF_BYTES : 199745185
        _STATISTICS_WRITING_APP: mkvpropedit v66.0.0 ('Josie') 64-bit
        _STATISTICS_WRITING_DATE_UTC: 2025-06-02 15:57:03
        _STATISTICS_TAGS: BPS DURATION NUMBER_OF_FRAMES NUMBER_OF_BYTES
  Stream #0:1: Audio: aac (LC), 48000 Hz, stereo, fltp (default)
      Metadata:
        HANDLER_NAME    : SoundHandler
        VENDOR_ID       : [0][0][0][0]
        ENCODER         : Lavc61.19.100 aac
        BPS             : 193323
        DURATION        : 00:23:46.645000000
        NUMBER_OF_FRAMES: 66875
        NUMBER_OF_BYTES : 34475548
        _STATISTICS_WRITING_APP: mkvpropedit v66.0.0 ('Josie') 64-bit
        _STATISTICS_WRITING_DATE_UTC: 2025-06-02 15:57:03
        _STATISTICS_TAGS: BPS DURATION NUMBER_OF_FRAMES NUMBER_OF_BYTES
Input #1, mov,mp4,m4a,3gp,3g2,mj2, from 'G:\Аниме\Онгоинги\!_36_Осень_2024\DreamCast\Повелитель демонов 2099\[DC] Maou 2099 - 09_Telegram.mp4':
  Metadata:
    major_brand     : isom
    minor_version   : 512
    compatible_brands: isomiso2avc1mp41
    encoder         : Lavf61.1.100
  Duration: 00:23:46.61, start: 0.000000, bitrate: 3165 kb/s
  Stream #1:0[0x1](und): Video: h264 (High) (avc1 / 0x31637661), yuv420p(tv, bt709, progressive), 1920x1080 [SAR 1:1 DAR 16:9], 3017 kb/s, 23.98 fps, 23.98 tbr, 24k tbn (default)
      Metadata:
        handler_name    : VideoHandler
        vendor_id       : [0][0][0][0]
        encoder         : Lavc61.3.100 h264_qsv
  Stream #1:1[0x2](und): Audio: aac (HE-AACv2) (mp4a / 0x6134706D), 48000 Hz, stereo, fltp, 144 kb/s (default)
      Metadata:
        handler_name    : SoundHandler
        vendor_id       : [0][0][0][0]
Stream mapping:
  Stream #0:0 (hevc) -> settb:default
  Stream #1:0 (h264) -> settb:default
  ssim:default -> Stream #0:0 (wrapped_avframe)
  Stream #0:1 -> #0:1 (aac (native) -> pcm_s16le (native))
Output #0, null, to 'pipe:':
  Metadata:
    COMPATIBLE_BRANDS: isomiso2avc1mp41
    MAJOR_BRAND     : isom
    MINOR_VERSION   : 512
    encoder         : Lavf61.7.100
  Stream #0:0: Video: wrapped_avframe, yuv420p10le(tv, bt709, progressive), 1920x1080 [SAR 1:1 DAR 16:9], q=2-31, 200 kb/s, 23.98 fps, 23.98 tbn
      Metadata:
        encoder         : Lavc61.19.100 wrapped_avframe
  Stream #0:1: Audio: pcm_s16le, 48000 Hz, stereo, s16, 1536 kb/s (default)
      Metadata:
        HANDLER_NAME    : SoundHandler
        VENDOR_ID       : [0][0][0][0]
        _STATISTICS_TAGS: BPS DURATION NUMBER_OF_FRAMES NUMBER_OF_BYTES
        BPS             : 193323
        DURATION        : 00:23:46.645000000
        NUMBER_OF_FRAMES: 66875
        NUMBER_OF_BYTES : 34475548
        _STATISTICS_WRITING_APP: mkvpropedit v66.0.0 ('Josie') 64-bit
        _STATISTICS_WRITING_DATE_UTC: 2025-06-02 15:57:03
        encoder         : Lavc61.19.100 pcm_s16le
frame=  167 fps=0.0 q=-0.0 size=N/A time=00:00:06.96 bitrate=N/A speed=13.6x    frame=  319 fps=313 q=-0.0 size=N/A time=00:00:13.30 bitrate=N/A speed=13.1x    frame=  447 fps=290 q=-0.0 size=N/A time=00:00:18.64 bitrate=N/A speed=12.1x    frame=  634 fps=309 q=-0.0 size=N/A time=00:00:26.44 bitrate=N/A speed=12.9x    frame=  813 fps=316 q=-0.0 size=N/A time=00:00:33.90 bitrate=N/A speed=13.2x    frame=  988 fps=320 q=-0.0 size=N/A time=00:00:41.20 bitrate=N/A speed=13.3x    frame= 1186 fps=330 q=-0.0 size=N/A time=00:00:49.46 bitrate=N/A speed=13.8x    frame= 1405 fps=341 q=-0.0 size=N/A time=00:00:58.60 bitrate=N/A speed=14.2x    frame= 1554 fps=335 q=-0.0 size=N/A time=00:01:04.81 bitrate=N/A speed=  14x    frame= 1729 fps=336 q=-0.0 size=N/A time=00:01:12.11 bitrate=N/A speed=  14x    frame= 1920 fps=339 q=-0.0 size=N/A time=00:01:20.08 bitrate=N/A speed=14.1x    frame= 2100 fps=339 q=-0.0 size=N/A time=00:01:27.58 bitrate=N/A speed=14.2x    frame= 2252 fps=336 q=-0.0 size=N/A time=00:01:33.92 bitrate=N/A speed=  14x    frame= 2490 fps=345 q=-0.0 size=N/A time=00:01:43.85 bitrate=N/A speed=14.4x    frame= 2754 fps=356 q=-0.0 size=N/A time=00:01:54.86 bitrate=N/A speed=14.9x    frame= 3013 fps=366 q=-0.0 size=N/A time=00:02:05.66 bitrate=N/A speed=15.3x    frame= 3274 fps=374 q=-0.0 size=N/A time=00:02:16.55 bitrate=N/A speed=15.6x    frame= 3542 fps=382 q=-0.0 size=N/A time=00:02:27.73 bitrate=N/A speed=15.9x    frame= 3827 fps=391 q=-0.0 size=N/A time=00:02:39.61 bitrate=N/A speed=16.3x    frame= 4091 fps=397 q=-0.0 size=N/A time=00:02:50.62 bitrate=N/A speed=16.6x    frame= 4361 fps=403 q=-0.0 size=N/A time=00:03:01.89 bitrate=N/A speed=16.8x    frame= 4616 fps=407 q=-0.0 size=N/A time=00:03:12.52 bitrate=N/A speed=  17x    frame= 4866 fps=411 q=-0.0 size=N/A time=00:03:22.95 bitrate=N/A speed=17.1x    frame= 5123 fps=414 q=-0.0 size=N/A time=00:03:33.67 bitrate=N/A speed=17.3x    frame= 5374 fps=417 q=-0.0 size=N/A time=00:03:44.14 bitrate=N/A speed=17.4x    frame= 5631 fps=421 q=-0.0 size=N/A time=00:03:54.85 bitrate=N/A speed=17.5x    frame= 5905 fps=424 q=-0.0 size=N/A time=00:04:06.28 bitrate=N/A speed=17.7x    frame= 6166 fps=427 q=-0.0 size=N/A time=00:04:17.17 bitrate=N/A speed=17.8x    frame= 6430 fps=430 q=-0.0 size=N/A time=00:04:28.18 bitrate=N/A speed=17.9x    frame= 6703 fps=434 q=-0.0 size=N/A time=00:04:39.57 bitrate=N/A speed=18.1x    frame= 6983 fps=437 q=-0.0 size=N/A time=00:04:51.24 bitrate=N/A speed=18.2x    frame= 7208 fps=437 q=-0.0 size=N/A time=00:05:00.63 bitrate=N/A speed=18.2x    frame= 7491 fps=440 q=-0.0 size=N/A time=00:05:12.43 bitrate=N/A speed=18.4x    frame= 7765 fps=443 q=-0.0 size=N/A time=00:05:23.86 bitrate=N/A speed=18.5x    frame= 8012 fps=444 q=-0.0 size=N/A time=00:05:34.16 bitrate=N/A speed=18.5x    frame= 8281 fps=446 q=-0.0 size=N/A time=00:05:45.38 bitrate=N/A speed=18.6x    frame= 8531 fps=447 q=-0.0 size=N/A time=00:05:55.81 bitrate=N/A speed=18.7x    frame= 8791 fps=449 q=-0.0 size=N/A time=00:06:06.65 bitrate=N/A speed=18.7x    frame= 9052 fps=450 q=-0.0 size=N/A time=00:06:17.54 bitrate=N/A speed=18.8x    frame= 9317 fps=452 q=-0.0 size=N/A time=00:06:28.59 bitrate=N/A speed=18.8x    frame= 9583 fps=453 q=-0.0 size=N/A time=00:06:39.69 bitrate=N/A speed=18.9x    frame= 9853 fps=455 q=-0.0 size=N/A time=00:06:50.95 bitrate=N/A speed=  19x    frame=10128 fps=457 q=-0.0 size=N/A time=00:07:02.42 bitrate=N/A speed=19.1x    frame=10397 fps=459 q=-0.0 size=N/A time=00:07:13.64 bitrate=N/A speed=19.1x    frame=10682 fps=460 q=-0.0 size=N/A time=00:07:25.52 bitrate=N/A speed=19.2x    frame=10931 fps=461 q=-0.0 size=N/A time=00:07:35.91 bitrate=N/A speed=19.2x    frame=11198 fps=462 q=-0.0 size=N/A time=00:07:47.04 bitrate=N/A speed=19.3x    frame=11483 fps=464 q=-0.0 size=N/A time=00:07:58.93 bitrate=N/A speed=19.4x    frame=11770 fps=466 q=-0.0 size=N/A time=00:08:10.90 bitrate=N/A speed=19.4x    frame=12034 fps=467 q=-0.0 size=N/A time=00:08:21.91 bitrate=N/A speed=19.5x    frame=12291 fps=467 q=-0.0 size=N/A time=00:08:32.63 bitrate=N/A speed=19.5x    frame=12566 fps=469 q=-0.0 size=N/A time=00:08:44.10 bitrate=N/A speed=19.6x    frame=12838 fps=470 q=-0.0 size=N/A time=00:08:55.45 bitrate=N/A speed=19.6x    frame=13115 fps=471 q=-0.0 size=N/A time=00:09:07.00 bitrate=N/A speed=19.6x    frame=13387 fps=472 q=-0.0 size=N/A time=00:09:18.34 bitrate=N/A speed=19.7x    frame=13662 fps=473 q=-0.0 size=N/A time=00:09:29.81 bitrate=N/A speed=19.7x    frame=13926 fps=474 q=-0.0 size=N/A time=00:09:40.83 bitrate=N/A speed=19.8x    frame=14210 fps=475 q=-0.0 size=N/A time=00:09:52.67 bitrate=N/A speed=19.8x    frame=14493 fps=476 q=-0.0 size=N/A time=00:10:04.47 bitrate=N/A speed=19.9x    frame=14766 fps=477 q=-0.0 size=N/A time=00:10:15.86 bitrate=N/A speed=19.9x    frame=15049 fps=478 q=-0.0 size=N/A time=00:10:27.66 bitrate=N/A speed=  20x    frame=15318 fps=479 q=-0.0 size=N/A time=00:10:38.88 bitrate=N/A speed=  20x    frame=15602 fps=480 q=-0.0 size=N/A time=00:10:50.73 bitrate=N/A speed=  20x    frame=15868 fps=481 q=-0.0 size=N/A time=00:11:01.82 bitrate=N/A speed=20.1x    frame=16142 fps=482 q=-0.0 size=N/A time=00:11:13.25 bitrate=N/A speed=20.1x    frame=16386 fps=482 q=-0.0 size=N/A time=00:11:23.43 bitrate=N/A speed=20.1x    frame=16640 fps=482 q=-0.0 size=N/A time=00:11:34.02 bitrate=N/A speed=20.1x    frame=16912 fps=482 q=-0.0 size=N/A time=00:11:45.37 bitrate=N/A speed=20.1x    frame=17159 fps=482 q=-0.0 size=N/A time=00:11:55.67 bitrate=N/A speed=20.1x    frame=17397 fps=482 q=-0.0 size=N/A time=00:12:05.59 bitrate=N/A speed=20.1x    frame=17648 fps=482 q=-0.0 size=N/A time=00:12:16.06 bitrate=N/A speed=20.1x    frame=17926 fps=483 q=-0.0 size=N/A time=00:12:27.66 bitrate=N/A speed=20.1x    frame=18203 fps=484 q=-0.0 size=N/A time=00:12:39.21 bitrate=N/A speed=20.2x    frame=18477 fps=484 q=-0.0 size=N/A time=00:12:50.64 bitrate=N/A speed=20.2x    frame=18717 fps=484 q=-0.0 size=N/A time=00:13:00.65 bitrate=N/A speed=20.2x    frame=18944 fps=483 q=-0.0 size=N/A time=00:13:10.12 bitrate=N/A speed=20.2x    frame=19158 fps=483 q=-0.0 size=N/A time=00:13:19.04 bitrate=N/A speed=20.1x    frame=19412 fps=483 q=-0.0 size=N/A time=00:13:29.64 bitrate=N/A speed=20.1x    frame=19692 fps=483 q=-0.0 size=N/A time=00:13:41.32 bitrate=N/A speed=20.2x    frame=19964 fps=484 q=-0.0 size=N/A time=00:13:52.66 bitrate=N/A speed=20.2x    frame=20239 fps=485 q=-0.0 size=N/A time=00:14:04.13 bitrate=N/A speed=20.2x    frame=20488 fps=485 q=-0.0 size=N/A time=00:14:14.52 bitrate=N/A speed=20.2x    frame=20761 fps=485 q=-0.0 size=N/A time=00:14:25.90 bitrate=N/A speed=20.2x    frame=21008 fps=485 q=-0.0 size=N/A time=00:14:36.20 bitrate=N/A speed=20.2x    frame=21193 fps=484 q=-0.0 size=N/A time=00:14:43.92 bitrate=N/A speed=20.2x    frame=21379 fps=482 q=-0.0 size=N/A time=00:14:51.68 bitrate=N/A speed=20.1x    frame=21575 fps=481 q=-0.0 size=N/A time=00:14:59.85 bitrate=N/A speed=20.1x    frame=21766 fps=480 q=-0.0 size=N/A time=00:15:07.82 bitrate=N/A speed=  20x    frame=22008 fps=480 q=-0.0 size=N/A time=00:15:17.91 bitrate=N/A speed=  20x    frame=22234 fps=479 q=-0.0 size=N/A time=00:15:27.34 bitrate=N/A speed=  20x    frame=22453 fps=479 q=-0.0 size=N/A time=00:15:36.47 bitrate=N/A speed=  20x    frame=22670 fps=478 q=-0.0 size=N/A time=00:15:45.52 bitrate=N/A speed=19.9x    frame=22904 fps=478 q=-0.0 size=N/A time=00:15:55.28 bitrate=N/A speed=19.9x    frame=23102 fps=477 q=-0.0 size=N/A time=00:16:03.54 bitrate=N/A speed=19.9x    frame=23294 fps=476 q=-0.0 size=N/A time=00:16:11.55 bitrate=N/A speed=19.8x    frame=23508 fps=475 q=-0.0 size=N/A time=00:16:20.47 bitrate=N/A speed=19.8x    frame=23736 fps=475 q=-0.0 size=N/A time=00:16:29.98 bitrate=N/A speed=19.8x    frame=23931 fps=474 q=-0.0 size=N/A time=00:16:38.12 bitrate=N/A speed=19.8x    frame=24120 fps=473 q=-0.0 size=N/A time=00:16:46.00 bitrate=N/A speed=19.7x    frame=24321 fps=472 q=-0.0 size=N/A time=00:16:54.38 bitrate=N/A speed=19.7x    frame=24520 fps=471 q=-0.0 size=N/A time=00:17:02.68 bitrate=N/A speed=19.6x    frame=24731 fps=470 q=-0.0 size=N/A time=00:17:11.48 bitrate=N/A speed=19.6x    frame=24933 fps=470 q=-0.0 size=N/A time=00:17:19.91 bitrate=N/A speed=19.6x    frame=25172 fps=470 q=-0.0 size=N/A time=00:17:29.88 bitrate=N/A speed=19.6x    frame=25448 fps=470 q=-0.0 size=N/A time=00:17:41.39 bitrate=N/A speed=19.6x    frame=25716 fps=471 q=-0.0 size=N/A time=00:17:52.57 bitrate=N/A speed=19.6x    frame=25974 fps=471 q=-0.0 size=N/A time=00:18:03.33 bitrate=N/A speed=19.6x    frame=26233 fps=471 q=-0.0 size=N/A time=00:18:14.13 bitrate=N/A speed=19.6x    frame=26496 fps=472 q=-0.0 size=N/A time=00:18:25.10 bitrate=N/A speed=19.7x    frame=26771 fps=472 q=-0.0 size=N/A time=00:18:36.57 bitrate=N/A speed=19.7x    frame=27036 fps=472 q=-0.0 size=N/A time=00:18:47.62 bitrate=N/A speed=19.7x    frame=27329 fps=473 q=-0.0 size=N/A time=00:18:59.84 bitrate=N/A speed=19.7x    frame=27609 fps=474 q=-0.0 size=N/A time=00:19:11.52 bitrate=N/A speed=19.8x    frame=27888 fps=475 q=-0.0 size=N/A time=00:19:23.16 bitrate=N/A speed=19.8x    frame=28156 fps=475 q=-0.0 size=N/A time=00:19:34.33 bitrate=N/A speed=19.8x    frame=28436 fps=476 q=-0.0 size=N/A time=00:19:46.01 bitrate=N/A speed=19.8x    frame=28708 fps=476 q=-0.0 size=N/A time=00:19:57.36 bitrate=N/A speed=19.8x    frame=28969 fps=476 q=-0.0 size=N/A time=00:20:08.24 bitrate=N/A speed=19.9x    frame=29248 fps=477 q=-0.0 size=N/A time=00:20:19.88 bitrate=N/A speed=19.9x    frame=29468 fps=476 q=-0.0 size=N/A time=00:20:29.06 bitrate=N/A speed=19.9x    frame=29732 fps=477 q=-0.0 size=N/A time=00:20:40.07 bitrate=N/A speed=19.9x    frame=30007 fps=477 q=-0.0 size=N/A time=00:20:51.54 bitrate=N/A speed=19.9x    frame=30278 fps=478 q=-0.0 size=N/A time=00:21:02.84 bitrate=N/A speed=19.9x    frame=30559 fps=478 q=-0.0 size=N/A time=00:21:14.56 bitrate=N/A speed=19.9x    frame=30828 fps=478 q=-0.0 size=N/A time=00:21:25.78 bitrate=N/A speed=  20x    frame=31106 fps=479 q=-0.0 size=N/A time=00:21:37.37 bitrate=N/A speed=  20x    frame=31373 fps=479 q=-0.0 size=N/A time=00:21:48.51 bitrate=N/A speed=  20x    frame=31626 fps=479 q=-0.0 size=N/A time=00:21:59.06 bitrate=N/A speed=  20x    frame=31859 fps=479 q=-0.0 size=N/A time=00:22:08.78 bitrate=N/A speed=  20x    frame=32090 fps=479 q=-0.0 size=N/A time=00:22:18.42 bitrate=N/A speed=  20x    frame=32345 fps=479 q=-0.0 size=N/A time=00:22:29.05 bitrate=N/A speed=  20x    frame=32564 fps=478 q=-0.0 size=N/A time=00:22:38.19 bitrate=N/A speed=  20x    frame=32762 fps=478 q=-0.0 size=N/A time=00:22:46.44 bitrate=N/A speed=19.9x    frame=32935 fps=477 q=-0.0 size=N/A time=00:22:53.66 bitrate=N/A speed=19.9x    frame=33094 fps=475 q=-0.0 size=N/A time=00:23:00.29 bitrate=N/A speed=19.8x    frame=33214 fps=474 q=-0.0 size=N/A time=00:23:05.30 bitrate=N/A speed=19.8x    frame=33321 fps=472 q=-0.0 size=N/A time=00:23:09.76 bitrate=N/A speed=19.7x    frame=33417 fps=470 q=-0.0 size=N/A time=00:23:13.76 bitrate=N/A speed=19.6x    frame=33525 fps=468 q=-0.0 size=N/A time=00:23:18.27 bitrate=N/A speed=19.5x    frame=33617 fps=466 q=-0.0 size=N/A time=00:23:22.10 bitrate=N/A speed=19.4x    frame=33725 fps=464 q=-0.0 size=N/A time=00:23:26.61 bitrate=N/A speed=19.3x    frame=33966 fps=464 q=-0.0 size=N/A time=00:23:36.66 bitrate=N/A speed=19.4x    [Parsed_ssim_10 @ 0000027b97136b00] SSIM Y:0.993683 (21.995147) U:0.992860 (21.463000) V:0.992782 (21.415896) All:0.993396 (21.801882)
[out#0/null @ 0000027b8a3f4500] video:14697KiB audio:267500KiB subtitle:0KiB other streams:0KiB global headers:0KiB muxing overhead: unknown
frame=34203 fps=464 q=-0.0 Lsize=N/A time=00:23:46.55 bitrate=N/A speed=19.4x    
